# Blender 4.2.1 LTS
# www.blender.org
mtllib bookset.mtl
o prop_books_01_inst_001
v -5.393688 0.032414 -1.450774
v -5.393688 0.229648 -1.450774
v -5.420466 0.032414 -1.450774
v -5.420466 0.229648 -1.450774
v -5.413773 0.032414 -1.589300
v -5.420466 0.032414 -1.582302
v -5.413773 0.229648 -1.589300
v -5.420466 0.229648 -1.582302
v -5.393688 0.032414 -1.582302
v -5.400382 0.032414 -1.589300
v -5.393688 0.229648 -1.582302
v -5.400382 0.229648 -1.589300
v -5.476364 0.033378 -1.443483
v -5.476364 0.233703 -1.443483
v -5.525984 0.033378 -1.443483
v -5.525984 0.233703 -1.443483
v -5.513580 0.033378 -1.586673
v -5.525984 0.033378 -1.580400
v -5.513580 0.233703 -1.586673
v -5.525984 0.233703 -1.580400
v -5.476364 0.033378 -1.580400
v -5.488768 0.033378 -1.586673
v -5.476364 0.233703 -1.580400
v -5.488768 0.233703 -1.586673
v -5.447981 0.032414 -1.443102
v -5.447981 0.229648 -1.443102
v -5.474760 0.032414 -1.443102
v -5.474760 0.229648 -1.443102
v -5.468066 0.032414 -1.581627
v -5.474760 0.032414 -1.574629
v -5.468066 0.229648 -1.581627
v -5.474760 0.229648 -1.574629
v -5.447981 0.032414 -1.574629
v -5.454675 0.032414 -1.581627
v -5.447981 0.229648 -1.574629
v -5.454675 0.229648 -1.581627
v -5.800379 0.035048 -1.379180
v -5.692106 0.035048 -1.379179
v -5.800379 0.068315 -1.379180
v -5.692106 0.068315 -1.379179
v -5.800379 0.059999 -1.564490
v -5.800379 0.068315 -1.555876
v -5.692106 0.059999 -1.564490
v -5.692106 0.068315 -1.555876
v -5.800379 0.035048 -1.555876
v -5.800379 0.043364 -1.564490
v -5.692106 0.035048 -1.555876
v -5.692106 0.043364 -1.564490
v -5.421667 0.032414 -1.438469
v -5.421667 0.229648 -1.438469
v -5.448445 0.032414 -1.438469
v -5.448445 0.229648 -1.438469
v -5.441751 0.032414 -1.576995
v -5.448445 0.032414 -1.569996
v -5.441751 0.229648 -1.576995
v -5.448445 0.229648 -1.569996
v -5.421667 0.032414 -1.569996
v -5.428360 0.032414 -1.576995
v -5.421667 0.229648 -1.569996
v -5.428360 0.229648 -1.576995
v -5.359270 0.033874 -1.459012
v -5.359270 0.194367 -1.459012
v -5.391572 0.033874 -1.459012
v -5.391572 0.194367 -1.459012
v -5.383498 0.033874 -1.577227
v -5.391572 0.033874 -1.572048
v -5.383498 0.194367 -1.577227
v -5.391572 0.194367 -1.572048
v -5.359270 0.033874 -1.572048
v -5.367345 0.033874 -1.577227
v -5.359270 0.194367 -1.572048
v -5.367345 0.194367 -1.577227
v -5.642277 0.033910 -1.443483
v -5.604526 0.230646 -1.443483
v -5.692183 0.043487 -1.443483
v -5.654431 0.240222 -1.443483
v -5.692183 0.043487 -1.580400
v -5.654431 0.240222 -1.580400
v -5.642277 0.033910 -1.580400
v -5.604525 0.230646 -1.580400
v -5.649895 0.035372 -1.443483
v -5.612144 0.232108 -1.443483
v -5.646813 0.238761 -1.443483
v -5.684565 0.042025 -1.443483
v -5.612144 0.232108 -1.577821
v -5.646813 0.238761 -1.577821
v -5.649895 0.035372 -1.577821
v -5.684565 0.042025 -1.577821
v -5.649418 0.037854 -1.446010
v -5.612620 0.229625 -1.446010
v -5.647290 0.236278 -1.446010
v -5.684088 0.044507 -1.446010
v -5.613096 0.227143 -1.577821
v -5.647766 0.233796 -1.577821
v -5.648942 0.040337 -1.577821
v -5.683612 0.046990 -1.577821
v -5.621614 0.233925 -1.588104
v -5.613320 0.232334 -1.585831
v -5.616247 0.232895 -1.579899
v -5.624695 0.234516 -1.581879
v -5.645637 0.238535 -1.585831
v -5.637343 0.236943 -1.588104
v -5.634262 0.236352 -1.581879
v -5.642710 0.237973 -1.579899
v -5.651071 0.035598 -1.585831
v -5.659365 0.037189 -1.588104
v -5.662446 0.037781 -1.581879
v -5.653998 0.036159 -1.579899
v -5.675094 0.040208 -1.588104
v -5.683388 0.041799 -1.585831
v -5.680461 0.041237 -1.579899
v -5.672013 0.039616 -1.581879
v -5.625770 0.229575 -1.583903
v -5.617579 0.228003 -1.581224
v -5.643283 0.232936 -1.581224
v -5.635093 0.231364 -1.583903
v -5.661615 0.042769 -1.583903
v -5.653425 0.041197 -1.581224
v -5.670938 0.044558 -1.583903
v -5.679129 0.046129 -1.581224
v -5.560957 0.033520 -1.443483
v -5.560957 0.245441 -1.443483
v -5.601742 0.033520 -1.443483
v -5.601742 0.245441 -1.443483
v -5.601742 0.033520 -1.580400
v -5.601742 0.245441 -1.580400
v -5.560957 0.033520 -1.580400
v -5.560957 0.245441 -1.580400
v -5.567183 0.033520 -1.443483
v -5.567183 0.245441 -1.443483
v -5.595516 0.245441 -1.443483
v -5.595516 0.033520 -1.443483
v -5.567183 0.245441 -1.577821
v -5.595516 0.245441 -1.577821
v -5.567183 0.033520 -1.577821
v -5.595516 0.033520 -1.577821
v -5.567183 0.036194 -1.446010
v -5.567183 0.242767 -1.446010
v -5.595516 0.242767 -1.446010
v -5.595516 0.036194 -1.446010
v -5.567183 0.240093 -1.577821
v -5.595516 0.240093 -1.577821
v -5.567183 0.038868 -1.577821
v -5.595516 0.038868 -1.577821
v -5.574923 0.245441 -1.588104
v -5.568145 0.245441 -1.585831
v -5.570537 0.245441 -1.579899
v -5.577441 0.245441 -1.581879
v -5.594554 0.245441 -1.585831
v -5.587777 0.245441 -1.588104
v -5.585258 0.245441 -1.581879
v -5.592163 0.245441 -1.579899
v -5.568145 0.033520 -1.585831
v -5.574923 0.033520 -1.588104
v -5.577441 0.033520 -1.581879
v -5.570537 0.033520 -1.579899
v -5.587777 0.033520 -1.588104
v -5.594554 0.033520 -1.585831
v -5.592163 0.033520 -1.579899
v -5.585258 0.033520 -1.581879
v -5.577540 0.240093 -1.583903
v -5.570847 0.240093 -1.581224
v -5.591853 0.240093 -1.581224
v -5.585159 0.240093 -1.583903
v -5.577540 0.038868 -1.583903
v -5.570847 0.038868 -1.581224
v -5.585159 0.038868 -1.583903
v -5.591853 0.038868 -1.581224
v -5.526246 0.033200 -1.435693
v -5.526246 0.227331 -1.435693
v -5.559512 0.033200 -1.435693
v -5.559512 0.227331 -1.435693
v -5.551196 0.033200 -1.589013
v -5.559512 0.033200 -1.580400
v -5.551196 0.227331 -1.589013
v -5.559512 0.227331 -1.580400
v -5.526245 0.033200 -1.580400
v -5.534561 0.033200 -1.589013
v -5.526245 0.227331 -1.580400
v -5.534561 0.227331 -1.589013
vn -0.0000 -0.0000 1.0000
vn -1.0000 -0.0000 -0.0000
vn -0.9988 -0.0000 -0.0484
vn -0.3291 -0.0000 -0.9443
vn 0.3291 -0.0000 -0.9443
vn 0.9988 -0.0000 -0.0484
vn 1.0000 -0.0000 -0.0000
vn -0.0000 1.0000 -0.0000
vn -0.0000 -1.0000 -0.0000
vn -0.1663 -0.0000 -0.9861
vn 0.1663 -0.0000 -0.9861
vn -0.4513 -0.0000 -0.8924
vn 0.4513 -0.0000 -0.8924
vn -0.0000 0.9990 -0.0450
vn -0.0000 0.3263 -0.9453
vn -0.0000 -0.3263 -0.9453
vn -0.0000 -0.9990 -0.0450
vn -0.0002 -0.9990 -0.0450
vn -0.2091 -0.0000 -0.9779
vn 0.2091 -0.0000 -0.9779
vn -0.5399 -0.0000 -0.8417
vn 0.5399 -0.0000 -0.8417
vn -0.9821 0.1885 -0.0000
vn -0.9801 0.1881 -0.0628
vn 0.9821 -0.1884 -0.0000
vn 0.9801 -0.1881 -0.0628
vn 0.9821 -0.1885 -0.0000
vn 0.1884 0.9819 -0.0192
vn 0.1884 0.9819 -0.0191
vn 0.1884 0.9821 -0.0000
vn 0.1885 0.9821 -0.0000
vn -0.1884 -0.9821 -0.0000
vn -0.9812 0.1883 0.0427
vn -0.9820 0.1837 0.0433
vn 0.9803 -0.1927 0.0427
vn -0.9803 0.1926 0.0427
vn 0.9812 -0.1883 0.0427
vn 0.9820 -0.1837 0.0433
vn -0.1884 -0.9819 -0.0192
vn -0.1884 -0.9819 -0.0190
vn -0.1884 -0.9819 -0.0191
vn -0.1885 -0.9821 -0.0000
vn 0.3976 -0.0763 -0.9144
vn 0.0909 -0.0174 -0.9957
vn -0.1864 -0.3063 0.9335
vn -0.3808 -0.1645 0.9099
vn -0.4046 -0.1399 0.9037
vn -0.0909 0.0174 -0.9957
vn -0.3976 0.0763 -0.9144
vn 0.0598 -0.3536 0.9335
vn 0.2929 -0.2938 0.9099
vn 0.0476 -0.3549 0.9337
vn -0.0598 0.3536 0.9335
vn -0.2929 0.2938 0.9099
vn -0.0475 0.3549 0.9337
vn 0.1864 0.3063 0.9335
vn 0.3808 0.1645 0.9099
vn 0.4046 0.1399 0.9037
vn 0.9802 -0.1879 -0.0629
vn -0.1755 -0.3121 0.9337
vn 0.3241 -0.2797 0.9037
vn 0.9803 -0.1928 0.0433
vn -0.3241 0.2797 0.9037
vn -0.9803 0.1929 0.0433
vn 0.1756 0.3121 0.9337
vn -0.9987 -0.0000 -0.0506
vn 0.9987 -0.0000 -0.0506
vn -0.0000 0.9998 -0.0203
vn -0.0000 0.9998 -0.0201
vn -0.9994 -0.0000 0.0343
vn -0.9994 -0.0035 0.0348
vn 0.9994 -0.0037 0.0343
vn -0.9994 0.0035 0.0343
vn 0.9994 -0.0000 0.0343
vn 0.9994 0.0035 0.0348
vn -0.0000 0.9998 -0.0202
vn -0.0000 -0.9998 -0.0203
vn -0.0000 -0.9998 -0.0201
vn -0.0000 -0.9998 -0.0202
vn 0.4830 -0.0000 -0.8756
vn 0.1150 -0.0000 -0.9934
vn -0.1566 -0.3181 0.9350
vn -0.4158 -0.2140 0.8839
vn -0.4460 -0.1955 0.8734
vn -0.1150 -0.0000 -0.9934
vn -0.4830 -0.0000 -0.8756
vn 0.1566 -0.3181 0.9350
vn 0.4158 -0.2140 0.8839
vn 0.1415 -0.3219 0.9361
vn -0.1566 0.3181 0.9350
vn -0.4158 0.2140 0.8839
vn -0.1415 0.3220 0.9361
vn 0.1566 0.3181 0.9350
vn 0.4158 0.2140 0.8839
vn 0.4460 0.1955 0.8734
vn 0.9987 -0.0000 -0.0505
vn -0.1415 -0.3219 0.9361
vn 0.4460 -0.1955 0.8734
vn 0.9994 -0.0035 0.0348
vn -0.4460 0.1955 0.8734
vn -0.9994 0.0035 0.0348
vn 0.1415 0.3219 0.9361
vn -0.9985 -0.0000 -0.0543
vn -0.3264 -0.0000 -0.9452
vn 0.3264 -0.0000 -0.9452
vn -0.3263 -0.0000 -0.9453
vn 0.9985 -0.0000 -0.0543
vn -0.9988 -0.0002 -0.0484
vn 0.0001 0.9990 -0.0450
vn -0.9987 -0.0000 -0.0505
vn -0.9985 0.0002 -0.0543
vn 0.3263 -0.0000 -0.9453
vt 0.329425 0.836965
vt 0.137272 0.867134
vt 0.137272 0.836965
vt 0.006462 0.685483
vt 0.179850 0.573783
vt 0.179850 0.685483
vt 0.006462 0.565365
vt 0.179850 0.551451
vt 0.179850 0.565365
vt 0.006462 0.574210
vt 0.179850 0.685374
vt 0.179850 0.574210
vt 0.456160 0.867134
vt 0.462760 0.844522
vt 0.462760 0.859577
vt 0.010538 0.836965
vt 0.010538 0.867134
vt 0.006462 0.542498
vt 0.179850 0.542498
vt 0.003938 0.844522
vt 0.003938 0.859577
vt 0.456160 0.836965
vt 0.329425 0.867134
vt 0.363900 0.944113
vt 0.154753 0.995947
vt 0.154746 0.944141
vt 0.173238 0.390852
vt 0.054275 0.216737
vt 0.173265 0.216756
vt 0.042168 0.390832
vt 0.020632 0.216732
vt 0.042195 0.216735
vt 0.053790 0.390826
vt 0.172753 0.216712
vt 0.053763 0.216730
vt 0.506852 0.944093
vt 0.513406 0.982949
vt 0.506859 0.995900
vt 0.011795 0.944160
vt 0.011802 0.995966
vt 0.008525 0.390826
vt 0.008552 0.216730
vt 0.005250 0.983017
vt 0.005247 0.957111
vt 0.363907 0.995919
vt 0.309379 0.905510
vt 0.196346 0.940282
vt 0.196334 0.905549
vt 0.304083 0.402562
vt 0.398169 0.264744
vt 0.398180 0.402556
vt 0.304072 0.255412
vt 0.398168 0.242432
vt 0.398169 0.255406
vt 0.304070 0.264687
vt 0.398156 0.402505
vt 0.398167 0.264693
vt 0.493864 0.905446
vt 0.502866 0.931494
vt 0.493876 0.940179
vt 0.011850 0.905612
vt 0.011861 0.940345
vt 0.304070 0.233100
vt 0.398167 0.233094
vt 0.002865 0.931666
vt 0.002859 0.914297
vt 0.309391 0.940243
vt 0.148000 0.828695
vt 0.351878 0.791846
vt 0.351876 0.828705
vt 0.988168 0.626643
vt 0.844052 0.409189
vt 0.988189 0.409204
vt 0.652407 0.409187
vt 0.796523 0.626642
vt 0.652387 0.626628
vt 0.489522 0.828712
vt 0.645853 0.409187
vt 0.645833 0.626627
vt 0.994722 0.626644
vt 0.793808 0.633393
vt 0.652386 0.633393
vt 0.846746 0.633393
vt 0.844032 0.626629
vt 0.793830 0.402438
vt 0.796544 0.409202
vt 0.846768 0.402438
vt 0.643172 0.623883
vt 0.643192 0.411930
vt 0.994743 0.409204
vt 0.997383 0.623901
vt 0.655047 0.637508
vt 0.793807 0.637508
vt 0.985507 0.637508
vt 0.988168 0.633393
vt 0.655069 0.398324
vt 0.652408 0.402438
vt 0.985529 0.398324
vt 0.846768 0.398324
vt 0.489524 0.791853
vt 0.493075 0.823946
vt 0.495873 0.815239
vt 0.493076 0.796619
vt 0.495873 0.805327
vt 0.010357 0.791829
vt 0.148002 0.791836
vt 0.010355 0.828688
vt 0.006803 0.796595
vt 0.004006 0.805303
vt 0.006802 0.823922
vt 0.004005 0.815214
vt 0.805890 0.625660
vt 0.813572 0.410585
vt 0.813709 0.625249
vt 0.806867 0.632357
vt 0.815657 0.631982
vt 0.807972 0.637508
vt 0.827003 0.625246
vt 0.834686 0.410171
vt 0.834776 0.625653
vt 0.833709 0.632140
vt 0.824924 0.631810
vt 0.832634 0.637508
vt 0.824463 0.637508
vt 0.806867 0.403691
vt 0.815653 0.404021
vt 0.807943 0.398324
vt 0.816114 0.398324
vt 0.826866 0.410583
vt 0.833709 0.403475
vt 0.824919 0.403849
vt 0.832605 0.398324
vt 0.802254 0.632664
vt 0.838316 0.632573
vt 0.802260 0.403258
vt 0.805800 0.410178
vt 0.838321 0.403168
vt 0.802778 0.637508
vt 0.816194 0.637508
vt 0.837761 0.637508
vt 0.802815 0.398324
vt 0.837798 0.398324
vt 0.824382 0.398324
vt 0.148004 0.873956
vt 0.351875 0.903572
vt 0.147999 0.903538
vt 0.983616 0.379812
vt 0.843408 0.168254
vt 0.983636 0.168268
vt 0.656959 0.168252
vt 0.797168 0.379811
vt 0.656939 0.379797
vt 0.351880 0.873990
vt 0.489520 0.903595
vt 0.650563 0.379796
vt 0.650583 0.168251
vt 0.989993 0.379812
vt 0.794526 0.386378
vt 0.656938 0.386378
vt 0.846029 0.386378
vt 0.843388 0.379798
vt 0.794547 0.161685
vt 0.797188 0.168266
vt 0.846050 0.161685
vt 0.647974 0.377126
vt 0.647994 0.170920
vt 0.990013 0.168268
vt 0.992582 0.377144
vt 0.659527 0.390382
vt 0.794525 0.390382
vt 0.981027 0.390382
vt 0.983616 0.386378
vt 0.659548 0.157683
vt 0.656959 0.161685
vt 0.981049 0.157683
vt 0.846050 0.157683
vt 0.489525 0.874013
vt 0.493074 0.899770
vt 0.495872 0.892782
vt 0.493077 0.877839
vt 0.495873 0.884827
vt 0.010358 0.873933
vt 0.010353 0.903515
vt 0.006805 0.877757
vt 0.004006 0.884745
vt 0.006801 0.899689
vt 0.004005 0.892700
vt 0.806280 0.378856
vt 0.813754 0.169612
vt 0.813888 0.378455
vt 0.807231 0.385371
vt 0.815783 0.385006
vt 0.808306 0.390382
vt 0.826821 0.378453
vt 0.834295 0.169209
vt 0.834383 0.378849
vt 0.833345 0.385160
vt 0.824798 0.384838
vt 0.832299 0.390382
vt 0.824350 0.390382
vt 0.807231 0.162904
vt 0.815778 0.163226
vt 0.808278 0.157683
vt 0.816227 0.157683
vt 0.826688 0.169610
vt 0.833345 0.162694
vt 0.824793 0.163059
vt 0.832271 0.157683
vt 0.806192 0.169215
vt 0.802743 0.385670
vt 0.837827 0.385580
vt 0.802749 0.162483
vt 0.837832 0.162395
vt 0.803253 0.390382
vt 0.816305 0.390382
vt 0.837288 0.390382
vt 0.803289 0.157683
vt 0.837323 0.157683
vt 0.824271 0.157683
vt 0.387450 0.690362
vt 0.160269 0.726031
vt 0.160269 0.690362
vt 0.008229 0.536845
vt 0.180078 0.426137
vt 0.180078 0.536845
vt 0.008229 0.417794
vt 0.180078 0.404003
vt 0.180078 0.417794
vt 0.008229 0.426704
vt 0.180078 0.536882
vt 0.180078 0.426704
vt 0.537287 0.690362
vt 0.545090 0.717097
vt 0.537287 0.726031
vt 0.010432 0.690362
vt 0.010432 0.726031
vt 0.008229 0.395129
vt 0.180078 0.395129
vt 0.002629 0.717097
vt 0.002629 0.699297
vt 0.387450 0.726031
vt 0.006462 0.573783
vt 0.006462 0.551451
vt 0.006462 0.685374
vt 0.054248 0.390833
vt 0.020605 0.390828
vt 0.172780 0.390808
vt 0.513403 0.957043
vt 0.304073 0.264750
vt 0.304071 0.242438
vt 0.304060 0.402499
vt 0.502860 0.914125
vt 0.988189 0.402438
vt 0.997403 0.411948
vt 0.846746 0.637508
vt 0.793830 0.398324
vt 0.983637 0.161685
vt 0.992601 0.170938
vt 0.846028 0.390382
vt 0.794548 0.157683
vt 0.008229 0.426137
vt 0.008229 0.404003
vt 0.008229 0.536882
vt 0.545090 0.699297
s 1
g off
g prop_books_01_inst_001_prop_books_01_mt
usemtl prop_books_01_mt
f 2/1/1 3/2/1 1/3/1
f 4/4/2 6/5/3 3/6/2
f 7/7/4 10/8/5 5/9/4
f 11/10/6 1/11/7 9/12/6
f 8/13/8 12/14/8 7/15/8
f 9/16/9 3/2/9 6/17/9
f 6/5/3 7/7/4 5/9/4
f 10/8/5 11/18/6 9/19/6
f 10/20/9 6/17/9 5/21/9
f 11/22/8 4/23/8 2/1/8
f 14/24/1 15/25/1 13/26/1
f 16/27/2 18/28/2 15/29/2
f 19/30/10 22/31/11 17/32/10
f 23/33/7 13/34/7 21/35/7
f 23/36/8 19/37/8 20/38/8
f 21/39/9 15/25/9 18/40/9
f 18/28/12 19/30/10 17/32/10
f 22/31/11 23/41/13 21/42/13
f 21/39/9 17/43/9 22/44/9
f 23/36/8 16/45/8 14/24/8
f 26/1/1 27/2/1 25/3/1
f 28/4/2 30/5/3 27/6/2
f 31/7/4 34/8/5 29/9/4
f 35/10/6 25/11/7 33/12/6
f 35/22/8 31/15/8 32/13/8
f 33/16/9 27/2/9 30/17/9
f 30/5/3 31/7/4 29/9/4
f 34/8/5 35/18/6 33/19/6
f 33/16/9 29/21/9 34/20/9
f 35/22/8 28/23/8 26/1/8
f 38/46/1 39/47/1 37/48/1
f 40/49/8 42/50/14 39/51/8
f 43/52/15 46/53/16 41/54/15
f 47/55/17 37/56/9 45/57/18
f 47/58/7 43/59/7 44/60/7
f 45/61/2 39/47/2 42/62/2
f 42/50/14 43/52/15 41/54/15
f 46/53/16 47/63/17 45/64/18
f 45/61/2 41/65/2 46/66/2
f 47/58/7 40/67/7 38/46/7
f 50/1/1 51/2/1 49/3/1
f 52/4/2 54/5/3 51/6/2
f 55/7/4 58/8/5 53/9/4
f 59/10/6 49/11/7 57/12/6
f 59/22/8 55/15/8 56/13/8
f 57/16/9 51/2/9 54/17/9
f 54/5/3 55/7/4 53/9/4
f 58/8/5 59/18/6 57/19/6
f 57/16/9 53/21/9 58/20/9
f 59/22/8 52/23/8 50/1/8
f 62/24/1 63/25/1 61/26/1
f 64/27/2 66/28/2 63/29/2
f 67/30/19 70/31/20 65/32/19
f 71/33/7 61/34/7 69/35/7
f 71/36/8 67/37/8 68/38/8
f 69/39/9 63/25/9 66/40/9
f 66/28/21 67/30/19 65/32/19
f 70/31/20 71/41/22 69/42/22
f 69/39/9 65/43/9 70/44/9
f 71/36/8 64/45/8 62/24/8
f 92/68/1 90/69/1 91/70/1
f 76/71/23 77/72/24 75/73/23
f 73/74/25 80/75/26 74/76/27
f 90/69/28 94/77/29 91/70/28
f 81/78/1 74/76/1 82/79/1
f 75/73/1 83/80/1 76/71/1
f 74/76/30 85/81/30 82/82/30
f 76/71/30 86/83/31 78/84/31
f 73/74/32 87/85/32 79/86/32
f 88/87/32 75/73/32 77/72/32
f 81/78/23 90/88/23 89/89/23
f 84/90/25 91/91/27 83/80/27
f 90/92/23 85/81/33 93/93/34
f 91/94/27 86/83/35 83/95/27
f 89/96/23 87/85/36 81/97/23
f 92/98/25 88/87/37 96/99/38
f 94/77/29 93/100/29 115/101/30
f 115/101/30 93/100/29 116/102/31
f 93/100/29 114/103/31 116/102/31
f 114/103/31 113/104/31 116/102/31
f 92/68/39 95/105/40 89/106/39
f 95/105/40 96/107/41 118/108/42
f 118/108/42 96/107/41 117/109/32
f 96/107/41 120/110/42 117/109/32
f 117/109/32 120/110/42 119/111/32
f 98/112/43 106/113/44 97/114/44
f 97/114/31 99/115/31 98/112/31
f 100/116/45 114/117/46 99/115/47
f 102/118/48 110/119/49 101/120/49
f 102/118/30 104/121/31 103/122/31
f 103/122/50 115/123/51 116/124/52
f 106/113/42 108/125/32 107/126/42
f 107/126/53 118/127/54 117/128/55
f 109/129/32 111/130/42 110/119/32
f 112/131/56 120/132/57 111/130/58
f 106/113/44 102/118/48 97/114/44
f 77/72/24 101/120/49 110/119/49
f 79/86/59 98/112/43 80/75/26
f 85/133/30 98/112/31 99/115/31
f 103/122/31 97/114/31 102/118/30
f 86/134/31 101/120/31 78/84/31
f 87/135/32 105/136/32 79/86/32
f 88/137/32 110/119/32 111/130/42
f 112/131/32 106/113/42 107/126/42
f 99/115/47 93/138/34 85/133/33
f 103/122/50 113/139/60 100/116/45
f 104/121/61 94/140/62 115/123/51
f 108/125/63 95/141/64 118/127/54
f 111/130/58 96/142/38 88/137/37
f 112/131/56 117/128/55 119/143/65
f 137/144/1 139/145/1 140/146/1
f 124/147/2 125/148/66 123/149/2
f 121/150/7 128/151/67 122/152/7
f 138/153/68 142/154/69 139/145/68
f 121/150/1 130/155/1 129/156/1
f 123/149/1 131/157/1 124/147/1
f 122/152/8 133/158/8 130/159/8
f 124/147/8 134/160/8 126/161/8
f 121/150/9 135/162/9 127/163/9
f 136/164/9 123/149/9 125/148/9
f 129/156/2 138/165/2 137/166/2
f 132/167/7 139/168/7 131/157/7
f 138/169/2 133/158/70 141/170/71
f 139/171/7 134/160/72 131/172/7
f 137/173/2 135/162/73 129/174/2
f 140/175/7 136/164/74 144/176/75
f 142/154/69 141/177/76 163/178/8
f 163/178/8 141/177/76 164/179/8
f 141/177/76 162/180/8 164/179/8
f 162/180/8 161/181/8 164/179/8
f 140/146/77 143/182/78 137/144/77
f 143/182/78 144/183/79 166/184/9
f 166/184/9 144/183/79 165/185/9
f 144/183/79 168/186/9 165/185/9
f 165/185/9 168/186/9 167/187/9
f 146/188/80 154/189/81 145/190/81
f 145/190/8 147/191/8 146/188/8
f 148/192/82 162/193/83 147/191/84
f 150/194/85 158/195/86 149/196/86
f 150/194/8 152/197/8 151/198/8
f 151/198/87 163/199/88 164/200/89
f 154/189/9 156/201/9 155/202/9
f 155/202/90 166/203/91 165/204/92
f 157/205/9 159/206/9 158/195/9
f 160/207/93 168/208/94 159/206/95
f 157/205/85 145/190/81 154/189/81
f 125/148/66 149/196/86 158/195/86
f 153/209/80 128/151/67 127/163/96
f 133/210/8 146/188/8 147/191/8
f 148/192/8 150/194/8 151/198/8
f 134/211/8 149/196/8 126/161/8
f 135/212/9 153/209/9 127/163/9
f 136/213/9 158/195/9 159/206/9
f 160/207/9 154/189/9 155/202/9
f 147/191/84 141/214/71 133/210/70
f 151/198/87 161/215/97 148/192/82
f 152/197/98 142/216/99 163/199/88
f 156/201/100 143/217/101 166/203/91
f 159/206/95 144/218/75 136/213/74
f 155/202/90 167/219/102 160/207/93
f 170/220/1 171/221/1 169/222/1
f 172/223/2 174/224/103 171/225/2
f 175/226/104 178/227/105 173/228/106
f 179/229/107 169/230/7 177/231/107
f 179/232/8 175/233/8 176/234/8
f 177/235/9 171/221/9 174/236/9
f 174/224/103 175/226/104 173/228/106
f 178/227/105 179/237/107 177/238/107
f 177/235/9 173/239/9 178/240/9
f 179/232/8 172/241/8 170/220/8
f 2/1/1 4/23/1 3/2/1
f 4/4/2 8/242/108 6/5/3
f 7/7/4 12/243/5 10/8/5
f 11/10/6 2/244/7 1/11/7
f 8/13/8 11/22/8 12/14/8
f 9/16/9 1/3/9 3/2/9
f 6/5/3 8/242/108 7/7/4
f 10/8/5 12/243/5 11/18/6
f 10/20/9 9/16/9 6/17/9
f 11/22/8 8/13/8 4/23/8
f 14/24/1 16/45/1 15/25/1
f 16/27/2 20/245/2 18/28/2
f 19/30/10 24/246/11 22/31/11
f 23/33/7 14/247/7 13/34/7
f 23/36/8 24/248/8 19/37/8
f 21/39/9 13/26/9 15/25/9
f 18/28/12 20/245/12 19/30/10
f 22/31/11 24/246/11 23/41/13
f 21/39/9 18/40/9 17/43/9
f 23/36/8 20/38/8 16/45/8
f 26/1/1 28/23/1 27/2/1
f 28/4/2 32/242/3 30/5/3
f 31/7/4 36/243/5 34/8/5
f 35/10/6 26/244/7 25/11/7
f 35/22/8 36/14/8 31/15/8
f 33/16/9 25/3/9 27/2/9
f 30/5/3 32/242/3 31/7/4
f 34/8/5 36/243/5 35/18/6
f 33/16/9 30/17/9 29/21/9
f 35/22/8 32/13/8 28/23/8
f 38/46/1 40/67/1 39/47/1
f 40/49/8 44/249/109 42/50/14
f 43/52/15 48/250/16 46/53/16
f 47/55/17 38/251/9 37/56/9
f 47/58/7 48/252/7 43/59/7
f 45/61/2 37/48/2 39/47/2
f 42/50/14 44/249/109 43/52/15
f 46/53/16 48/250/16 47/63/17
f 45/61/2 42/62/2 41/65/2
f 47/58/7 44/60/7 40/67/7
f 50/1/1 52/23/1 51/2/1
f 52/4/2 56/242/3 54/5/3
f 55/7/4 60/243/5 58/8/5
f 59/10/6 50/244/7 49/11/7
f 59/22/8 60/14/8 55/15/8
f 57/16/9 49/3/9 51/2/9
f 54/5/3 56/242/3 55/7/4
f 58/8/5 60/243/5 59/18/6
f 57/16/9 54/17/9 53/21/9
f 59/22/8 56/13/8 52/23/8
f 62/24/1 64/45/1 63/25/1
f 64/27/2 68/245/2 66/28/2
f 67/30/19 72/246/20 70/31/20
f 71/33/7 62/247/7 61/34/7
f 71/36/8 72/248/8 67/37/8
f 69/39/9 61/26/9 63/25/9
f 66/28/21 68/245/21 67/30/19
f 70/31/20 72/246/20 71/41/22
f 69/39/9 66/40/9 65/43/9
f 71/36/8 68/38/8 64/45/8
f 92/68/1 89/106/1 90/69/1
f 76/71/23 78/84/24 77/72/24
f 73/74/25 79/86/59 80/75/26
f 90/69/28 93/100/29 94/77/29
f 81/78/1 73/74/1 74/76/1
f 75/73/1 84/90/1 83/80/1
f 74/76/30 80/75/30 85/81/30
f 76/71/30 83/95/30 86/83/31
f 73/74/32 81/97/32 87/85/32
f 88/87/32 84/253/32 75/73/32
f 81/78/23 82/79/23 90/88/23
f 84/90/25 92/254/25 91/91/27
f 90/92/23 82/82/23 85/81/33
f 91/94/27 94/255/62 86/83/35
f 89/96/23 95/256/64 87/85/36
f 92/98/25 84/253/25 88/87/37
f 92/68/39 96/107/41 95/105/40
f 98/112/43 105/136/43 106/113/44
f 97/114/31 100/116/31 99/115/31
f 100/116/45 113/139/60 114/117/46
f 102/118/48 109/129/48 110/119/49
f 102/118/30 101/120/31 104/121/31
f 103/122/50 104/121/61 115/123/51
f 106/113/42 105/136/32 108/125/32
f 107/126/53 108/125/63 118/127/54
f 109/129/32 112/131/32 111/130/42
f 112/131/56 119/143/65 120/132/57
f 106/113/44 109/129/48 102/118/48
f 77/72/24 78/84/24 101/120/49
f 79/86/59 105/136/43 98/112/43
f 85/133/30 80/75/30 98/112/31
f 103/122/31 100/116/31 97/114/31
f 86/134/31 104/121/31 101/120/31
f 87/135/32 108/125/32 105/136/32
f 88/137/32 77/72/32 110/119/32
f 112/131/32 109/129/32 106/113/42
f 99/115/47 114/117/46 93/138/34
f 103/122/50 116/124/52 113/139/60
f 104/121/61 86/134/35 94/140/62
f 108/125/63 87/135/36 95/141/64
f 111/130/58 120/132/57 96/142/38
f 112/131/56 107/126/53 117/128/55
f 137/144/1 138/153/1 139/145/1
f 124/147/2 126/161/110 125/148/66
f 121/150/7 127/163/96 128/151/67
f 138/153/68 141/177/76 142/154/69
f 121/150/1 122/152/1 130/155/1
f 123/149/1 132/167/1 131/157/1
f 122/152/8 128/151/8 133/158/8
f 124/147/8 131/172/8 134/160/8
f 121/150/9 129/174/9 135/162/9
f 136/164/9 132/257/9 123/149/9
f 129/156/2 130/155/2 138/165/2
f 132/167/7 140/258/7 139/168/7
f 138/169/2 130/159/2 133/158/70
f 139/171/7 142/259/99 134/160/72
f 137/173/2 143/260/101 135/162/73
f 140/175/7 132/257/7 136/164/74
f 140/146/77 144/183/79 143/182/78
f 146/188/80 153/209/80 154/189/81
f 145/190/8 148/192/8 147/191/8
f 148/192/82 161/215/97 162/193/83
f 150/194/85 157/205/85 158/195/86
f 150/194/8 149/196/8 152/197/8
f 151/198/87 152/197/98 163/199/88
f 154/189/9 153/209/9 156/201/9
f 155/202/90 156/201/100 166/203/91
f 157/205/9 160/207/9 159/206/9
f 160/207/93 167/219/102 168/208/94
f 157/205/85 150/194/85 145/190/81
f 125/148/66 126/161/110 149/196/86
f 153/209/80 146/188/80 128/151/67
f 133/210/8 128/151/8 146/188/8
f 148/192/8 145/190/8 150/194/8
f 134/211/8 152/197/8 149/196/8
f 135/212/9 156/201/9 153/209/9
f 136/213/9 125/148/9 158/195/9
f 160/207/9 157/205/9 154/189/9
f 147/191/84 162/193/83 141/214/71
f 151/198/87 164/200/89 161/215/97
f 152/197/98 134/211/72 142/216/99
f 156/201/100 135/212/73 143/217/101
f 159/206/95 168/208/94 144/218/75
f 155/202/90 165/204/92 167/219/102
f 170/220/1 172/241/1 171/221/1
f 172/223/2 176/261/111 174/224/103
f 175/226/104 180/262/112 178/227/105
f 179/229/107 170/263/7 169/230/7
f 179/232/8 180/264/8 175/233/8
f 177/235/9 169/222/9 171/221/9
f 174/224/103 176/261/111 175/226/104
f 178/227/105 180/262/112 179/237/107
f 177/235/9 174/236/9 173/239/9
f 179/232/8 176/234/8 172/241/8
