# Blender 4.2.1 LTS
# www.blender.org
mtllib frame.mtl
o Cube.068_Cube.027
v 2.690403 1.125775 0.090017
v 2.690403 1.611698 0.090017
v 2.690403 1.125775 -0.286350
v 2.690403 1.611698 -0.286350
v 2.772277 1.125775 0.090017
v 2.772277 1.611698 0.090017
v 2.772277 1.125775 -0.286350
v 2.772277 1.611698 -0.286350
v 2.772277 1.181842 0.036040
v 2.690403 1.181842 0.036040
v 2.772277 1.181842 -0.232373
v 2.690403 1.181842 -0.232373
v 2.772277 1.320193 0.036040
v 2.772277 1.555630 -0.232373
v 2.690403 1.555630 -0.232373
v 2.772277 1.555630 0.036040
v 2.690403 1.555630 0.036040
vn -1.0000 -0.0000 -0.0000
vn -0.0000 -0.0000 -1.0000
vn 1.0000 -0.0000 -0.0000
vn -0.0000 -0.0000 1.0000
vn -0.0000 -1.0000 -0.0000
vn -0.0000 1.0000 -0.0000
s 0
g off
g Cube.068_Cube.027_Material.006
usemtl Material.006
f 4//1 15//1 17//1
f 4//2 7//2 3//2
f 7//3 9//3 5//3
f 6//4 1//4 5//4
f 7//5 1//5 3//5
f 4//6 6//6 8//6
f 11//4 15//4 12//4
f 16//3 8//3 6//3
f 12//1 3//1 10//1
f 9//6 12//6 10//6
f 17//5 14//5 16//5
f 17//2 16//2 13//2
f 10//1 1//1 17//1
f 1//1 2//1 17//1
f 2//1 4//1 17//1
f 4//2 8//2 7//2
f 7//3 8//3 14//3
f 7//3 14//3 11//3
f 9//3 13//3 5//3
f 7//3 11//3 9//3
f 6//4 2//4 1//4
f 7//5 5//5 1//5
f 4//6 2//6 6//6
f 11//4 14//4 15//4
f 6//3 5//3 13//3
f 16//3 14//3 8//3
f 6//3 13//3 16//3
f 12//1 15//1 3//1
f 15//1 4//1 3//1
f 3//1 1//1 10//1
f 9//6 11//6 12//6
f 17//5 15//5 14//5
f 13//2 9//2 10//2
f 10//2 17//2 13//2
o Cube.069_Cube.029
v 2.761423 1.180375 0.037528
v 2.761423 1.557098 0.037528
v 2.761423 1.180375 -0.233861
v 2.761423 1.557098 -0.233861
v 2.725870 1.180375 0.037528
v 2.725870 1.557098 0.037528
v 2.725870 1.180375 -0.233861
v 2.725870 1.557098 -0.233861
vn 1.0000 -0.0000 -0.0000
vn -0.0000 -0.0000 -1.0000
vn -1.0000 -0.0000 -0.0000
vn -0.0000 -0.0000 1.0000
vn -0.0000 -1.0000 -0.0000
vn -0.0000 1.0000 -0.0000
s 0
g off
g Cube.069_Cube.029_Material.001
usemtl Material.001
f 19//7 18//7 20//7
f 21//8 20//8 24//8
f 25//9 24//9 22//9
f 23//10 22//10 18//10
f 24//11 20//11 18//11
f 21//12 25//12 23//12
f 19//7 20//7 21//7
f 21//8 24//8 25//8
f 25//9 22//9 23//9
f 23//10 18//10 19//10
f 24//11 18//11 22//11
f 21//12 23//12 19//12
