# Blender 4.2.1 LTS
# www.blender.org
mtllib frame2.mtl
o Cube.074_Cube.027
v 2.735605 1.250141 0.605189
v 2.735605 1.510818 0.605189
v 2.735605 1.250141 0.228822
v 2.735605 1.510818 0.228822
v 2.817478 1.250141 0.605189
v 2.817478 1.510818 0.605189
v 2.817478 1.250141 0.228822
v 2.817478 1.510818 0.228822
v 2.817478 1.280219 0.551212
v 2.735605 1.280219 0.551212
v 2.817478 1.280219 0.282799
v 2.735605 1.280219 0.282799
v 2.817478 1.354439 0.551212
v 2.817478 1.480740 0.282799
v 2.735605 1.480740 0.282799
v 2.817478 1.480740 0.551212
v 2.735605 1.480740 0.551212
vn -1.0000 -0.0000 -0.0000
vn -0.0000 -0.0000 -1.0000
vn 1.0000 -0.0000 -0.0000
vn -0.0000 -0.0000 1.0000
vn -0.0000 -1.0000 -0.0000
vn -0.0000 1.0000 -0.0000
s 0
g off
g Cube.074_Cube.027_Material.006
usemtl Material.006
f 2//1 15//1 17//1
f 4//2 7//2 3//2
f 7//3 9//3 5//3
f 6//4 1//4 5//4
f 7//5 1//5 3//5
f 4//6 6//6 8//6
f 11//4 15//4 12//4
f 16//3 8//3 6//3
f 12//1 3//1 10//1
f 9//6 12//6 10//6
f 17//5 14//5 16//5
f 17//2 16//2 13//2
f 10//1 1//1 2//1
f 2//1 4//1 15//1
f 17//1 10//1 2//1
f 4//2 8//2 7//2
f 7//3 8//3 11//3
f 8//3 14//3 11//3
f 9//3 13//3 5//3
f 7//3 11//3 9//3
f 6//4 2//4 1//4
f 7//5 5//5 1//5
f 4//6 2//6 6//6
f 11//4 14//4 15//4
f 6//3 5//3 13//3
f 16//3 14//3 8//3
f 6//3 13//3 16//3
f 12//1 15//1 4//1
f 3//1 1//1 10//1
f 12//1 4//1 3//1
f 9//6 11//6 12//6
f 17//5 15//5 14//5
f 13//2 9//2 10//2
f 10//2 17//2 13//2
