# Blender 4.2.1 LTS
# www.blender.org
mtllib lampO.mtl
o Cylinder.024_Cylinder.037
v -2.018979 1.610242 1.931969
v -1.987322 1.610242 1.986800
v -1.987322 1.610242 2.050114
v -2.018979 1.610242 2.104945
v -2.073810 1.610242 2.136601
v -2.137123 1.610242 2.136601
v -2.191955 1.610242 2.104945
v -2.223611 1.610242 2.050113
v -2.223611 1.610242 1.986800
v -2.191955 1.610242 1.931969
v -2.137124 1.610242 1.900312
v -2.073810 1.610242 1.900312
v -2.043288 1.786137 2.001796
v -2.059948 1.786137 1.972938
v -2.043288 1.786137 2.035118
v -2.059948 1.786137 2.063975
v -2.088806 1.786137 2.080636
v -2.122128 1.786137 2.080636
v -2.150985 1.786137 2.063975
v -2.167646 1.786137 2.035118
v -2.167646 1.786137 2.001796
v -2.150985 1.786137 1.972938
v -2.122128 1.786137 1.956277
v -2.088806 1.786137 1.956277
v -2.057287 1.778401 1.970277
v -2.039651 1.778401 2.000822
v -2.171282 1.778401 2.036092
v -2.171282 1.778401 2.000822
v -2.087831 1.778401 2.084272
v -2.123102 1.778401 2.084272
v -2.087831 1.778401 1.952641
v -2.039651 1.778401 2.036092
v -2.153647 1.778401 1.970277
v -2.153647 1.778401 2.066637
v -2.057287 1.778401 2.066637
v -2.123102 1.778401 1.952641
v -1.992517 1.621295 1.988192
v -2.218417 1.621295 1.988192
v -2.135731 1.621295 2.131407
v -1.992517 1.621295 2.048722
v -2.188152 1.621295 1.935772
v -2.188152 1.621295 2.101142
v -2.022782 1.621295 2.101142
v -2.135732 1.621295 1.905507
v -2.022782 1.621295 1.935772
v -2.218417 1.621295 2.048722
v -2.075202 1.621295 2.131407
v -2.075202 1.621295 1.905507
v -1.988200 1.612110 1.987035
v -2.222734 1.612110 1.987035
v -2.136888 1.612110 2.135724
v -1.988200 1.612110 2.049878
v -2.191312 1.612110 1.932611
v -2.191312 1.612110 2.104302
v -2.019621 1.612110 2.104302
v -2.136888 1.612110 1.901190
v -2.019621 1.612110 1.932611
v -2.222733 1.612110 2.049878
v -2.074045 1.612110 2.135724
v -2.074045 1.612110 1.901190
v -2.021135 1.609520 1.934126
v -1.990268 1.609520 1.987589
v -1.990268 1.609520 2.049324
v -2.021135 1.609520 2.102788
v -2.074599 1.609520 2.133656
v -2.136334 1.609520 2.133656
v -2.189798 1.609520 2.102788
v -2.220665 1.609520 2.049324
v -2.220665 1.609520 1.987589
v -2.189798 1.609520 1.934126
v -2.136334 1.609520 1.903258
v -2.074599 1.609520 1.903258
v -2.046907 1.785250 2.002766
v -2.062598 1.785250 1.975588
v -2.046907 1.785250 2.034148
v -2.062598 1.785250 2.061325
v -2.089776 1.785250 2.077016
v -2.121158 1.785250 2.077016
v -2.148335 1.785250 2.061325
v -2.164026 1.785250 2.034148
v -2.164026 1.785250 2.002766
v -2.148335 1.785250 1.975588
v -2.121158 1.785250 1.959897
v -2.089776 1.785250 1.959897
v -2.059937 1.777513 1.972927
v -2.043271 1.777513 2.001791
v -2.167662 1.777513 2.035122
v -2.167662 1.777513 2.001791
v -2.088802 1.777513 2.080652
v -2.122132 1.777513 2.080652
v -2.088802 1.777513 1.956261
v -2.043271 1.777513 2.035122
v -2.150997 1.777513 1.972927
v -2.150997 1.777513 2.063987
v -2.059937 1.777513 2.063987
v -2.122132 1.777513 1.956261
v -1.995463 1.620573 1.988981
v -2.215471 1.620573 1.988981
v -2.134942 1.620573 2.128461
v -1.995463 1.620573 2.047932
v -2.185995 1.620573 1.937928
v -2.185995 1.620573 2.098985
v -2.024938 1.620573 2.098985
v -2.134942 1.620573 1.908453
v -2.024938 1.620573 1.937928
v -2.215471 1.620573 2.047932
v -2.075991 1.620573 2.128461
v -2.075991 1.620573 1.908453
v -1.991146 1.611388 1.987825
v -2.219788 1.611388 1.987825
v -2.136099 1.611388 2.132778
v -1.991146 1.611388 2.049089
v -2.189155 1.611388 1.934768
v -2.189155 1.611388 2.102145
v -2.021778 1.611388 2.102146
v -2.136099 1.611388 1.904136
v -2.021778 1.611388 1.934768
v -2.219788 1.611388 2.049089
v -2.074835 1.611388 2.132778
v -2.074835 1.611388 1.904136
v -1.994292 1.609553 1.988667
v -2.024081 1.609553 1.937071
v -1.994292 1.609553 2.048246
v -2.024081 1.609553 2.099843
v -2.075677 1.609553 2.129632
v -2.135256 1.609553 2.129632
v -2.186853 1.609553 2.099843
v -2.216642 1.609553 2.048246
v -2.216642 1.609553 1.988667
v -2.186853 1.609553 1.937071
v -2.135256 1.609553 1.907282
v -2.075677 1.609553 1.907282
v -1.995139 1.611355 1.988894
v -2.215795 1.611355 1.988894
v -2.135029 1.611355 2.128785
v -1.995139 1.611355 2.048019
v -2.186233 1.611355 1.937691
v -2.186233 1.611355 2.099223
v -2.024701 1.611355 2.099223
v -2.135029 1.611355 1.908129
v -2.024701 1.611355 1.937691
v -2.215795 1.611355 2.048019
v -2.075904 1.611355 2.128785
v -2.075904 1.611355 1.908129
vn 0.6580 0.3661 -0.6580
vn 0.3837 0.9177 -0.1028
vn 0.8989 0.3661 -0.2409
vn -0.8989 0.3661 0.2409
vn -0.3838 0.9177 -0.1028
vn -0.8989 0.3661 -0.2408
vn -0.2409 0.3661 0.8989
vn 0.1028 0.9177 0.3837
vn -0.1028 0.9177 0.3837
vn 0.2408 0.3661 -0.8989
vn 0.2809 0.9177 -0.2809
vn 0.3837 0.9177 0.1028
vn 0.8989 0.3661 0.2409
vn -0.2809 0.9177 -0.2809
vn -0.6580 0.3661 -0.6580
vn -0.6580 0.3661 0.6580
vn -0.2809 0.9177 0.2809
vn 0.6580 0.3661 0.6580
vn 0.2809 0.9177 0.2809
vn -0.2409 0.3661 -0.8989
vn -0.1028 0.9177 -0.3837
vn -0.3837 0.9177 0.1028
vn 0.2408 0.3661 0.8989
vn 0.1028 0.9177 -0.3838
vn -0.2402 0.3723 -0.8965
vn 0.2402 0.3723 -0.8965
vn 0.6563 0.3723 0.6563
vn 0.2402 0.3723 0.8965
vn -0.6563 0.3723 0.6563
vn -0.8965 0.3723 0.2402
vn 0.8965 0.3723 0.2402
vn -0.2402 0.3723 0.8965
vn -0.8965 0.3723 -0.2402
vn -0.6563 0.3723 -0.6563
vn 0.8965 0.3723 -0.2402
vn 0.6563 0.3723 -0.6563
vn 0.6358 0.4375 -0.6358
vn 0.8686 0.4375 -0.2327
vn -0.8686 0.4375 0.2327
vn -0.8686 0.4375 -0.2327
vn 0.2327 0.4375 0.8686
vn -0.2327 0.4375 0.8686
vn 0.2327 0.4375 -0.8686
vn 0.8686 0.4375 0.2327
vn -0.6358 0.4375 -0.6358
vn -0.6358 0.4375 0.6358
vn 0.6358 0.4375 0.6358
vn -0.2327 0.4375 -0.8686
vn -0.2191 -0.5323 -0.8177
vn 0.2191 -0.5323 -0.8177
vn 0.2191 -0.5323 0.8177
vn -0.5986 -0.5323 0.5986
vn -0.8177 -0.5323 0.2191
vn 0.8177 -0.5323 0.2191
vn 0.5986 -0.5323 0.5986
vn -0.2191 -0.5323 0.8177
vn -0.5986 -0.5323 -0.5986
vn 0.8177 -0.5323 -0.2191
vn 0.5986 -0.5323 -0.5986
vn -0.8177 -0.5323 -0.2191
vn -0.5471 0.6336 0.5471
vn -0.8981 -0.3681 0.2406
vn -0.7473 0.6336 0.2002
vn 0.7473 0.6336 -0.2002
vn 0.8981 -0.3681 0.2406
vn 0.7473 0.6336 0.2002
vn 0.2002 0.6336 -0.7473
vn -0.2406 -0.3681 -0.8981
vn 0.2406 -0.3681 -0.8981
vn -0.2002 0.6336 0.7473
vn -0.6575 -0.3681 0.6575
vn -0.8981 -0.3681 -0.2406
vn -0.7473 0.6336 -0.2002
vn 0.5471 0.6336 0.5471
vn 0.6575 -0.3681 0.6574
vn 0.5471 0.6336 -0.5471
vn 0.6575 -0.3681 -0.6575
vn -0.6574 -0.3681 -0.6575
vn -0.5471 0.6336 -0.5471
vn 0.2002 0.6336 0.7473
vn 0.2406 -0.3681 0.8981
vn 0.8981 -0.3681 -0.2406
vn -0.2002 0.6336 -0.7473
vn -0.2406 -0.3681 0.8981
vn -0.2400 -0.3742 0.8958
vn -0.6557 -0.3742 -0.6557
vn -0.2400 -0.3742 -0.8958
vn 0.8958 -0.3742 -0.2400
vn 0.2400 -0.3742 0.8958
vn 0.2400 -0.3742 -0.8958
vn 0.6557 -0.3742 -0.6557
vn 0.8958 -0.3742 0.2400
vn 0.6557 -0.3742 0.6557
vn -0.8958 -0.3742 -0.2400
vn -0.6557 -0.3742 0.6557
vn -0.8958 -0.3742 0.2400
vn -0.5313 0.6598 0.5313
vn -0.7258 0.6598 0.1945
vn 0.7258 0.6598 0.1945
vn -0.1945 0.6598 -0.7258
vn 0.1945 0.6598 -0.7258
vn -0.7259 0.6598 -0.1945
vn 0.5314 0.6598 0.5314
vn 0.5313 0.6598 -0.5314
vn -0.5314 0.6598 -0.5314
vn 0.1945 0.6598 0.7259
vn 0.7259 0.6598 -0.1945
vn -0.1945 0.6598 0.7258
vn 0.1635 0.7751 0.6103
vn -0.1635 0.7751 0.6103
vn -0.1254 -0.9915 -0.0336
vn 0.3749 -0.9216 -0.1005
vn -0.1254 -0.9915 0.0336
vn -0.6103 0.7751 -0.1635
vn 0.2744 -0.9216 -0.2744
vn -0.0918 -0.9915 0.0918
vn 0.6103 0.7751 0.1635
vn 0.4468 0.7751 0.4468
vn -0.0336 -0.9915 0.1254
vn 0.1005 -0.9216 -0.3749
vn 0.4468 0.7751 -0.4468
vn 0.0336 -0.9915 0.1254
vn -0.1005 -0.9216 -0.3749
vn -0.4468 0.7751 -0.4468
vn 0.0918 -0.9915 -0.0918
vn -0.1005 -0.9216 0.3749
vn 0.0336 -0.9915 -0.1254
vn -0.6103 0.7751 0.1635
vn 0.0918 -0.9915 0.0918
vn -0.2744 -0.9216 -0.2744
vn 0.1254 -0.9915 -0.0336
vn 0.1254 -0.9915 0.0336
vn -0.0918 -0.9915 -0.0918
vn -0.0336 -0.9915 -0.1254
vn -0.1635 0.7751 -0.6103
vn 0.6103 0.7751 -0.1635
vn 0.2744 -0.9216 0.2744
vn 0.1005 -0.9216 0.3749
vn 0.3749 -0.9216 0.1005
vn -0.3749 -0.9216 -0.1005
vn -0.2744 -0.9216 0.2744
vn -0.4468 0.7751 0.4468
vn 0.1635 0.7751 -0.6103
vn -0.3749 -0.9216 0.1005
vt 0.452735 0.381265
vt 0.483256 0.359138
vt 0.486169 0.373628
vt 0.380694 0.726105
vt 0.415195 0.706705
vt 0.414129 0.718468
vt 0.646779 0.713625
vt 0.616259 0.709078
vt 0.647846 0.701862
vt 0.414129 0.381265
vt 0.451669 0.366354
vt 0.063588 0.385640
vt 0.098089 0.378366
vt 0.097022 0.393277
vt 0.451669 0.706705
vt 0.452735 0.718468
vt 0.685386 0.713625
vt 0.684320 0.701862
vt 0.135629 0.393277
vt 0.134562 0.378366
vt 0.486169 0.726105
vt 0.483256 0.713921
vt 0.715907 0.709078
vt 0.718820 0.721262
vt 0.169063 0.385640
vt 0.166149 0.371151
vt 0.380694 0.373628
vt 0.415195 0.366354
vt 0.322221 0.664424
vt 0.392726 0.680529
vt 0.157031 0.692541
vt 0.227536 0.676436
vt 0.706789 0.949685
vt 0.777293 0.965790
vt 0.544643 0.970633
vt 0.075620 0.692541
vt 0.625377 0.949685
vt 0.392726 0.954528
vt 0.474138 0.954528
vt 0.005115 0.676436
vt 0.474138 0.680529
vt 0.554872 0.965790
vt 0.322221 0.970633
vt 0.544643 0.664424
vt 0.475694 0.702282
vt 0.548893 0.685562
vt 0.317971 0.988408
vt 0.391170 0.971688
vt 0.550622 0.983565
vt 0.623821 0.966845
vt 0.391170 0.702282
vt 0.000864 0.697574
vt 0.074064 0.714295
vt 0.475694 0.971688
vt 0.708344 0.966845
vt 0.158587 0.714295
vt 0.548893 0.988408
vt 0.781544 0.983565
vt 0.231787 0.697574
vt 0.317106 0.689860
vt 0.390854 0.706705
vt 0.232651 0.701872
vt 0.708661 0.970333
vt 0.782408 0.987179
vt 0.549757 0.992022
vt 0.073747 0.718718
vt 0.158904 0.718718
vt 0.623505 0.970334
vt 0.476010 0.975177
vt 0.000000 0.701872
vt 0.476010 0.706705
vt 0.317106 0.992022
vt 0.390854 0.975177
vt 0.549757 0.689860
vt 0.645143 0.365934
vt 0.612481 0.373628
vt 0.615394 0.359138
vt 0.934363 0.365933
vt 0.905681 0.370901
vt 0.904615 0.359138
vt 0.129736 0.718718
vt 0.162398 0.737697
vt 0.130802 0.730480
vt 0.679493 0.365934
vt 0.644076 0.380845
vt 0.783434 0.000000
vt 0.754752 0.021707
vt 0.753685 0.006795
vt 0.870264 0.359138
vt 0.869198 0.370901
vt 0.095385 0.718718
vt 0.094319 0.730480
vt 0.718269 0.021706
vt 0.719335 0.006795
vt 0.840516 0.365934
vt 0.837602 0.378118
vt 0.062724 0.737697
vt 0.065637 0.725513
vt 0.686673 0.014490
vt 0.689587 0.000000
vt 0.712155 0.373628
vt 0.680560 0.380845
vt 0.701962 0.680109
vt 0.696866 0.320970
vt 0.628200 0.305286
vt 0.004251 0.982225
vt 0.779129 0.622646
vt 0.152205 0.966540
vt 0.072916 0.966540
vt 0.927084 0.606961
vt 0.847795 0.606961
vt 0.786347 0.014490
vt 0.776155 0.320970
vt 0.622674 0.680109
vt 0.937276 0.378118
vt 0.554008 0.664424
vt 0.621118 0.701862
vt 0.549757 0.685562
vt 0.995750 0.622646
vt 0.928640 0.624121
vt 0.225121 1.000000
vt 0.153761 0.983700
vt 0.849071 0.326424
vt 0.777710 0.342724
vt 0.846239 0.624121
vt 0.071361 0.983700
vt 0.695310 0.342724
vt 0.774879 0.640421
vt 0.000000 1.000000
vt 0.623950 0.326424
vt 0.770628 0.664424
vt 0.703518 0.701862
vt 0.317106 0.131453
vt 0.362142 0.052707
vt 0.322469 0.133134
vt 0.117036 0.004627
vt 0.049243 0.057739
vt 0.045286 0.053112
vt 0.358215 0.311023
vt 0.430859 0.352867
vt 0.429419 0.359138
vt 0.009265 0.138784
vt 0.003861 0.137091
vt 0.429419 0.000000
vt 0.510206 0.006272
vt 0.430859 0.006272
vt 0.003861 0.234060
vt 0.009265 0.232367
vt 0.623950 0.227685
vt 0.618595 0.133134
vt 0.623950 0.131454
vt 0.045286 0.318038
vt 0.049243 0.313412
vt 0.511637 0.359138
vt 0.510206 0.352867
vt 0.313060 0.234060
vt 0.307665 0.138784
vt 0.313060 0.137090
vt 0.317106 0.227685
vt 0.362142 0.306432
vt 0.117036 0.366523
vt 0.118487 0.360203
vt 0.274622 0.321426
vt 0.317106 0.235300
vt 0.201037 0.371151
vt 0.271636 0.318038
vt 0.199886 0.366523
vt 0.042484 0.321426
vt 0.116069 0.371151
vt 0.000000 0.235300
vt 0.000000 0.135851
vt 0.042484 0.049725
vt 0.116069 0.000000
vt 0.199885 0.004627
vt 0.201037 0.000000
vt 0.271635 0.053112
vt 0.274622 0.049725
vt 0.317106 0.135850
vt 0.800605 0.839534
vt 0.786454 0.801405
vt 0.803591 0.836147
vt 0.832122 0.860832
vt 0.833274 0.856205
vt 0.867549 0.856205
vt 0.868516 0.860832
vt 0.897231 0.836147
vt 0.900033 0.839534
vt 0.914369 0.801405
vt 0.918230 0.802645
vt 0.914369 0.761289
vt 0.918230 0.760049
vt 0.900033 0.723160
vt 0.897231 0.726548
vt 0.868516 0.701862
vt 0.867549 0.706490
vt 0.833274 0.706490
vt 0.832122 0.701862
vt 0.803591 0.726548
vt 0.800605 0.723160
vt 0.782408 0.760049
vt 0.786454 0.761289
vt 0.782408 0.802645
vt 0.249776 0.625850
vt 0.232651 0.545779
vt 0.236306 0.545422
vt 0.266901 0.372125
vt 0.249776 0.452196
vt 0.263349 0.371151
vt 0.280371 0.625850
vt 0.269784 0.545778
vt 0.283357 0.626824
vt 0.296827 0.625850
vt 0.286240 0.545778
vt 0.299814 0.626824
vt 0.253431 0.545422
vt 0.253431 0.452552
vt 0.266901 0.545422
vt 0.269784 0.452196
vt 0.283357 0.545422
vt 0.286240 0.452196
vt 0.266901 0.625850
vt 0.249776 0.545779
vt 0.232651 0.452196
vt 0.236306 0.452552
vt 0.266901 0.452552
vt 0.283357 0.371151
vt 0.296827 0.372125
vt 0.283357 0.452552
vt 0.246224 0.371151
vt 0.249776 0.372125
vt 0.267687 0.313412
vt 0.307665 0.232367
vt 0.322469 0.226004
vt 0.118487 0.010947
vt 0.578922 0.306432
vt 0.582840 0.311023
vt 0.618595 0.226004
vt 0.198443 0.010947
vt 0.582841 0.048115
vt 0.578922 0.052707
vt 0.198443 0.360203
vt 0.511637 0.000000
vt 0.267687 0.057739
vt 0.358216 0.048115
vt 0.383608 0.713920
vt 0.613345 0.721262
vt 0.066501 0.371151
vt 0.383608 0.359138
vt 0.317971 0.685562
vt 0.549757 0.987179
vt 0.159484 0.725513
vt 0.709241 0.359138
vt 0.844820 0.305285
vt 0.220871 0.982225
vt 1.000000 0.640421
vt 0.774879 0.685562
vt 0.246224 0.626824
vt 0.263349 0.626824
vt 0.280371 0.372125
vt 0.299814 0.371151
s 1
g off
g Cylinder.024_Cylinder.037_Canv
usemtl Canv
f 25/1/1 13/2/2 26/3/3
f 27/4/4 21/5/5 28/6/6
f 30/7/7 17/8/8 18/9/9
f 31/10/10 14/11/11 25/1/1
f 26/12/3 15/13/12 32/14/13
f 28/6/6 22/15/14 33/16/15
f 34/17/16 18/9/9 19/18/17
f 35/19/18 15/13/12 16/20/19
f 36/21/20 22/15/14 23/22/21
f 34/17/16 20/23/22 27/24/4
f 29/25/23 16/20/19 17/26/8
f 36/27/20 24/28/24 31/10/10
f 44/29/25 31/10/10 48/30/26
f 43/31/27 29/25/23 47/32/28
f 42/33/29 27/24/4 46/34/30
f 44/35/25 33/16/15 36/21/20
f 40/36/31 35/19/18 43/31/27
f 39/37/32 34/17/16 42/33/29
f 38/38/33 33/16/15 41/39/34
f 37/40/35 32/14/13 40/36/31
f 48/30/26 25/1/1 45/41/36
f 47/42/28 30/7/7 39/37/32
f 46/43/30 28/6/6 38/38/33
f 37/44/35 25/1/1 26/3/3
f 57/45/37 37/44/35 49/46/38
f 58/47/39 38/38/33 50/48/40
f 59/49/41 39/37/32 51/50/42
f 60/51/43 45/41/36 57/45/37
f 49/52/38 40/36/31 52/53/44
f 50/48/40 41/39/34 53/54/45
f 54/55/46 39/37/32 42/33/29
f 52/53/44 43/31/27 55/56/47
f 53/54/45 44/35/25 56/57/48
f 54/55/46 46/34/30 58/58/39
f 55/56/47 47/32/28 59/59/41
f 60/51/43 44/29/25 48/30/26
f 11/60/49 60/51/43 12/61/50
f 5/62/51 55/56/47 59/59/41
f 7/63/52 58/58/39 8/64/53
f 11/65/49 53/54/45 56/57/48
f 3/66/54 55/56/47 4/67/55
f 6/68/56 54/55/46 7/63/52
f 10/69/57 50/48/40 53/54/45
f 2/70/58 52/53/44 3/66/54
f 1/71/59 60/51/43 57/45/37
f 6/68/56 59/49/41 51/50/42
f 8/72/53 50/48/40 9/73/60
f 1/71/59 49/46/38 2/74/58
f 74/75/61 86/76/62 73/77/63
f 80/78/64 88/79/65 81/80/66
f 78/81/67 89/82/68 90/83/69
f 84/84/70 85/85/71 74/75/61
f 73/86/63 92/87/72 75/88/73
f 82/89/74 88/79/65 93/90/75
f 79/91/76 90/83/69 94/92/77
f 75/88/73 95/93/78 76/94/79
f 83/95/80 93/90/75 96/96/81
f 79/91/76 87/97/82 80/98/64
f 76/94/79 89/99/68 77/100/83
f 84/84/70 96/101/81 91/102/84
f 96/101/81 108/103/85 91/102/84
f 89/99/68 103/104/86 107/105/87
f 94/92/77 106/106/88 87/97/82
f 93/90/75 104/107/89 96/96/81
f 92/87/72 103/104/86 95/93/78
f 94/92/77 99/108/90 102/109/91
f 93/90/75 98/110/92 101/111/93
f 86/112/62 100/113/94 92/87/72
f 91/102/84 105/114/95 85/85/71
f 89/82/68 99/108/90 90/83/69
f 87/115/82 98/110/92 88/79/65
f 85/85/71 97/116/96 86/76/62
f 97/116/96 117/117/97 109/118/98
f 106/119/88 110/120/99 98/110/92
f 99/108/90 119/121/100 111/122/101
f 108/103/85 117/117/97 105/114/95
f 100/113/94 109/123/98 112/124/102
f 101/111/93 110/120/99 113/125/103
f 102/109/91 111/122/101 114/126/104
f 100/113/94 115/127/105 103/104/86
f 104/107/89 113/125/103 116/128/106
f 106/106/88 114/126/104 118/129/107
f 103/104/86 119/130/100 107/105/87
f 104/131/89 120/132/108 108/103/85
f 120/133/108 140/134/109 144/135/110
f 69/136/111 128/137/112 68/138/113
f 109/139/98 136/140/114 112/141/102
f 68/138/113 127/142/115 67/143/116
f 113/144/103 134/145/117 137/146/118
f 66/147/119 127/142/115 126/148/120
f 111/149/101 138/150/121 114/151/104
f 65/152/122 126/148/120 125/153/123
f 115/154/105 136/140/114 139/155/124
f 61/156/125 132/157/126 72/158/127
f 117/159/97 133/160/128 109/139/98
f 64/161/129 125/153/123 124/162/130
f 2/163/58 61/156/125 1/164/59
f 3/165/54 62/166/131 2/163/58
f 3/165/54 64/161/129 63/167/132
f 5/168/51 64/161/129 4/169/55
f 6/170/56 65/152/122 5/168/51
f 6/170/56 67/143/116 66/147/119
f 7/171/52 68/138/113 67/143/116
f 8/172/53 69/136/111 68/138/113
f 9/173/60 70/174/133 69/136/111
f 10/175/57 71/176/134 70/174/133
f 11/177/49 72/158/127 71/176/134
f 12/178/50 61/156/125 72/158/127
f 13/179/2 74/180/61 73/181/63
f 15/182/12 73/181/63 75/183/73
f 15/182/12 76/184/79 16/185/19
f 16/185/19 77/186/83 17/187/8
f 17/187/8 78/188/67 18/189/9
f 18/189/9 79/190/76 19/191/17
f 20/192/22 79/190/76 80/193/64
f 21/194/5 80/193/64 81/195/66
f 21/194/5 82/196/74 22/197/14
f 22/197/14 83/198/80 23/199/21
f 24/200/24 83/198/80 84/201/70
f 14/202/11 84/201/70 74/180/61
f 140/203/109 132/204/126 144/205/110
f 143/206/135 124/207/130 125/208/123
f 142/209/136 127/210/115 128/211/112
f 140/212/109 130/213/137 131/214/138
f 136/215/114 124/207/130 139/216/124
f 138/217/121 126/218/120 127/210/115
f 137/219/118 129/220/139 130/213/137
f 133/221/128 123/222/140 136/215/114
f 144/205/110 122/223/141 141/224/142
f 135/225/143 125/226/123 126/218/120
f 142/227/136 129/220/139 134/228/117
f 141/224/142 121/229/144 133/230/128
f 61/156/125 121/231/144 122/232/141
f 120/133/108 141/233/142 117/159/97
f 70/174/133 129/234/139 69/136/111
f 115/154/105 143/235/135 119/236/100
f 63/167/132 121/231/144 62/166/131
f 119/236/100 135/237/143 111/149/101
f 71/176/134 130/238/137 70/174/133
f 118/239/107 138/150/121 142/240/136
f 63/167/132 124/162/130 123/241/140
f 110/242/99 142/240/136 134/145/117
f 72/158/127 131/243/138 71/176/134
f 113/144/103 140/134/109 116/244/106
f 25/1/1 14/11/11 13/2/2
f 27/4/4 20/245/22 21/5/5
f 30/7/7 29/246/23 17/8/8
f 31/10/10 24/28/24 14/11/11
f 26/12/3 13/247/2 15/13/12
f 28/6/6 21/5/5 22/15/14
f 34/17/16 30/7/7 18/9/9
f 35/19/18 32/14/13 15/13/12
f 36/21/20 33/16/15 22/15/14
f 34/17/16 19/18/17 20/23/22
f 29/25/23 35/19/18 16/20/19
f 36/27/20 23/248/21 24/28/24
f 44/29/25 36/27/20 31/10/10
f 43/31/27 35/19/18 29/25/23
f 42/33/29 34/17/16 27/24/4
f 44/35/25 41/39/34 33/16/15
f 40/36/31 32/14/13 35/19/18
f 39/37/32 30/7/7 34/17/16
f 38/38/33 28/6/6 33/16/15
f 37/40/35 26/12/3 32/14/13
f 48/30/26 31/10/10 25/1/1
f 47/42/28 29/246/23 30/7/7
f 46/43/30 27/4/4 28/6/6
f 37/44/35 45/41/36 25/1/1
f 57/45/37 45/41/36 37/44/35
f 58/47/39 46/43/30 38/38/33
f 59/49/41 47/42/28 39/37/32
f 60/51/43 48/30/26 45/41/36
f 49/52/38 37/40/35 40/36/31
f 50/48/40 38/38/33 41/39/34
f 54/55/46 51/50/42 39/37/32
f 52/53/44 40/36/31 43/31/27
f 53/54/45 41/39/34 44/35/25
f 54/55/46 42/33/29 46/34/30
f 55/56/47 43/31/27 47/32/28
f 60/51/43 56/249/48 44/29/25
f 11/60/49 56/249/48 60/51/43
f 5/62/51 4/67/55 55/56/47
f 7/63/52 54/55/46 58/58/39
f 11/65/49 10/69/57 53/54/45
f 3/66/54 52/53/44 55/56/47
f 6/68/56 51/50/42 54/55/46
f 10/69/57 9/73/60 50/48/40
f 2/70/58 49/52/38 52/53/44
f 1/71/59 12/61/50 60/51/43
f 6/68/56 5/250/51 59/49/41
f 8/72/53 58/47/39 50/48/40
f 1/71/59 57/45/37 49/46/38
f 74/75/61 85/85/71 86/76/62
f 80/78/64 87/115/82 88/79/65
f 78/81/67 77/251/83 89/82/68
f 84/84/70 91/102/84 85/85/71
f 73/86/63 86/112/62 92/87/72
f 82/89/74 81/80/66 88/79/65
f 79/91/76 78/81/67 90/83/69
f 75/88/73 92/87/72 95/93/78
f 83/95/80 82/89/74 93/90/75
f 79/91/76 94/92/77 87/97/82
f 76/94/79 95/93/78 89/99/68
f 84/84/70 83/252/80 96/101/81
f 96/101/81 104/131/89 108/103/85
f 89/99/68 95/93/78 103/104/86
f 94/92/77 102/109/91 106/106/88
f 93/90/75 101/111/93 104/107/89
f 92/87/72 100/113/94 103/104/86
f 94/92/77 90/83/69 99/108/90
f 93/90/75 88/79/65 98/110/92
f 86/112/62 97/253/96 100/113/94
f 91/102/84 108/103/85 105/114/95
f 89/82/68 107/254/87 99/108/90
f 87/115/82 106/119/88 98/110/92
f 85/85/71 105/114/95 97/116/96
f 97/116/96 105/114/95 117/117/97
f 106/119/88 118/255/107 110/120/99
f 99/108/90 107/254/87 119/121/100
f 108/103/85 120/132/108 117/117/97
f 100/113/94 97/253/96 109/123/98
f 101/111/93 98/110/92 110/120/99
f 102/109/91 99/108/90 111/122/101
f 100/113/94 112/124/102 115/127/105
f 104/107/89 101/111/93 113/125/103
f 106/106/88 102/109/91 114/126/104
f 103/104/86 115/127/105 119/130/100
f 104/131/89 116/256/106 120/132/108
f 120/133/108 116/244/106 140/134/109
f 69/136/111 129/234/139 128/137/112
f 109/139/98 133/160/128 136/140/114
f 68/138/113 128/137/112 127/142/115
f 113/144/103 110/242/99 134/145/117
f 66/147/119 67/143/116 127/142/115
f 111/149/101 135/237/143 138/150/121
f 65/152/122 66/147/119 126/148/120
f 115/154/105 112/141/102 136/140/114
f 61/156/125 122/232/141 132/157/126
f 117/159/97 141/233/142 133/160/128
f 64/161/129 65/152/122 125/153/123
f 2/163/58 62/166/131 61/156/125
f 3/165/54 63/167/132 62/166/131
f 3/165/54 4/169/55 64/161/129
f 5/168/51 65/152/122 64/161/129
f 6/170/56 66/147/119 65/152/122
f 6/170/56 7/171/52 67/143/116
f 7/171/52 8/172/53 68/138/113
f 8/172/53 9/173/60 69/136/111
f 9/173/60 10/175/57 70/174/133
f 10/175/57 11/177/49 71/176/134
f 11/177/49 12/178/50 72/158/127
f 12/178/50 1/164/59 61/156/125
f 13/179/2 14/202/11 74/180/61
f 15/182/12 13/179/2 73/181/63
f 15/182/12 75/183/73 76/184/79
f 16/185/19 76/184/79 77/186/83
f 17/187/8 77/186/83 78/188/67
f 18/189/9 78/188/67 79/190/76
f 20/192/22 19/191/17 79/190/76
f 21/194/5 20/192/22 80/193/64
f 21/194/5 81/195/66 82/196/74
f 22/197/14 82/196/74 83/198/80
f 24/200/24 23/199/21 83/198/80
f 14/202/11 24/200/24 84/201/70
f 140/203/109 131/257/138 132/204/126
f 143/206/135 139/216/124 124/207/130
f 142/209/136 138/217/121 127/210/115
f 140/212/109 137/219/118 130/213/137
f 136/215/114 123/222/140 124/207/130
f 138/217/121 135/225/143 126/218/120
f 137/219/118 134/228/117 129/220/139
f 133/221/128 121/258/144 123/222/140
f 144/205/110 132/204/126 122/223/141
f 135/225/143 143/259/135 125/226/123
f 142/227/136 128/260/112 129/220/139
f 141/224/142 122/223/141 121/229/144
f 61/156/125 62/166/131 121/231/144
f 120/133/108 144/135/110 141/233/142
f 70/174/133 130/238/137 129/234/139
f 115/154/105 139/155/124 143/235/135
f 63/167/132 123/241/140 121/231/144
f 119/236/100 143/235/135 135/237/143
f 71/176/134 131/243/138 130/238/137
f 118/239/107 114/151/104 138/150/121
f 63/167/132 64/161/129 124/162/130
f 110/242/99 118/239/107 142/240/136
f 72/158/127 132/157/126 131/243/138
f 113/144/103 137/146/118 140/134/109
