# Blender 4.2.1 LTS
# www.blender.org
mtllib paintL.mtl
o Cube.068_Cube.027
v 2.690403 1.125775 0.090017
v 2.690403 1.611698 0.090017
v 2.690403 1.125775 -0.286350
v 2.690403 1.611698 -0.286350
v 2.772277 1.125775 0.090017
v 2.772277 1.611698 0.090017
v 2.772277 1.125775 -0.286350
v 2.772277 1.611698 -0.286350
v 2.772277 1.181842 0.036040
v 2.690403 1.181842 0.036040
v 2.772277 1.181842 -0.232373
v 2.690403 1.181842 -0.232373
v 2.772277 1.320193 0.036040
v 2.772277 1.555630 -0.232373
v 2.690403 1.555630 -0.232373
v 2.772277 1.555630 0.036040
v 2.690403 1.555630 0.036040
vn -1.0000 -0.0000 -0.0000
vn -0.0000 -0.0000 -1.0000
vn 1.0000 -0.0000 -0.0000
vn -0.0000 -0.0000 1.0000
vn -0.0000 -1.0000 -0.0000
vn -0.0000 1.0000 -0.0000
s 0
g off
g Cube.068_Cube.027_Material.006
usemtl Material.006
f 4//1 15//1 17//1
f 4//2 7//2 3//2
f 7//3 9//3 5//3
f 6//4 1//4 5//4
f 7//5 1//5 3//5
f 4//6 6//6 8//6
f 11//4 15//4 12//4
f 16//3 8//3 6//3
f 12//1 3//1 10//1
f 9//6 12//6 10//6
f 17//5 14//5 16//5
f 17//2 16//2 13//2
f 10//1 1//1 17//1
f 1//1 2//1 17//1
f 2//1 4//1 17//1
f 4//2 8//2 7//2
f 7//3 8//3 14//3
f 7//3 14//3 11//3
f 9//3 13//3 5//3
f 7//3 11//3 9//3
f 6//4 2//4 1//4
f 7//5 5//5 1//5
f 4//6 2//6 6//6
f 11//4 14//4 15//4
f 6//3 5//3 13//3
f 16//3 14//3 8//3
f 6//3 13//3 16//3
f 12//1 15//1 3//1
f 15//1 4//1 3//1
f 3//1 1//1 10//1
f 9//6 11//6 12//6
f 17//5 15//5 14//5
f 13//2 9//2 10//2
f 10//2 17//2 13//2
o Cube.069_Cube.029
v 2.761423 1.180375 0.037528
v 2.761423 1.557098 0.037528
v 2.761423 1.180375 -0.233861
v 2.761423 1.557098 -0.233861
v 2.725870 1.180375 0.037528
v 2.725870 1.557098 0.037528
v 2.725870 1.180375 -0.233861
v 2.725870 1.557098 -0.233861
vn -1.0000 -0.0000 -0.0000
vn -0.0000 -0.0000 1.0000
vn 1.0000 -0.0000 -0.0000
vn -0.0000 -0.0000 -1.0000
vn -0.0000 1.0000 -0.0000
vn -0.0000 -1.0000 -0.0000
s 0
g off
g Cube.069_Cube.029_Material.001
usemtl Material.001
f 19//7 20//7 18//7
f 21//8 24//8 20//8
f 25//9 22//9 24//9
f 23//10 18//10 22//10
f 24//11 18//11 20//11
f 21//12 23//12 25//12
f 19//7 21//7 20//7
f 21//8 25//8 24//8
f 25//9 23//9 22//9
f 23//10 19//10 18//10
f 24//11 22//11 18//11
f 21//12 19//12 23//12
o Cube.070_Cube.027
v 2.706003 1.155295 0.063617
v 2.706003 1.582177 0.063617
v 2.706003 1.155295 -0.255150
v 2.706003 1.582177 -0.255150
v 2.750828 1.155295 0.063617
v 2.750828 1.582177 0.063617
v 2.750828 1.155295 -0.255150
v 2.750828 1.582177 -0.255150
v 2.750829 1.204550 0.017900
v 2.706003 1.204550 0.017900
v 2.750829 1.204550 -0.209434
v 2.706003 1.204550 -0.209434
v 2.750829 1.326092 0.017900
v 2.750829 1.532922 -0.209434
v 2.706003 1.532922 -0.209434
v 2.750829 1.532922 0.017900
v 2.706003 1.532922 0.017900
vn -1.0000 -0.0000 -0.0000
vn -0.0000 -0.0000 -1.0000
vn 1.0000 -0.0000 -0.0000
vn -0.0000 -0.0000 1.0000
vn -0.0000 -1.0000 -0.0000
vn -0.0000 1.0000 -0.0000
s 0
g off
g Cube.070_Cube.027_Material.006
usemtl Material.006
f 42//13 35//13 27//13
f 29//14 32//14 28//14
f 32//15 34//15 30//15
f 31//16 26//16 30//16
f 32//17 26//17 28//17
f 29//18 31//18 33//18
f 36//16 40//16 37//16
f 41//15 33//15 31//15
f 37//13 28//13 35//13
f 34//18 37//18 35//18
f 42//17 39//17 41//17
f 42//14 41//14 38//14
f 35//13 26//13 27//13
f 27//13 29//13 42//13
f 29//13 40//13 42//13
f 29//14 33//14 32//14
f 32//15 33//15 39//15
f 32//15 39//15 36//15
f 34//15 38//15 30//15
f 32//15 36//15 34//15
f 31//16 27//16 26//16
f 32//17 30//17 26//17
f 29//18 27//18 31//18
f 36//16 39//16 40//16
f 31//15 30//15 38//15
f 41//15 39//15 33//15
f 31//15 38//15 41//15
f 37//13 40//13 29//13
f 28//13 26//13 35//13
f 37//13 29//13 28//13
f 34//18 36//18 37//18
f 42//17 40//17 39//17
f 38//14 34//14 35//14
f 35//14 42//14 38//14
o Cube.074_Cube.027
v 2.735605 1.250141 0.605189
v 2.735605 1.510818 0.605189
v 2.735605 1.250141 0.228822
v 2.735605 1.510818 0.228822
v 2.817478 1.250141 0.605189
v 2.817478 1.510818 0.605189
v 2.817478 1.250141 0.228822
v 2.817478 1.510818 0.228822
v 2.817478 1.280219 0.551212
v 2.735605 1.280219 0.551212
v 2.817478 1.280219 0.282799
v 2.735605 1.280219 0.282799
v 2.817478 1.354439 0.551212
v 2.817478 1.480740 0.282799
v 2.735605 1.480740 0.282799
v 2.817478 1.480740 0.551212
v 2.735605 1.480740 0.551212
vn -1.0000 -0.0000 -0.0000
vn -0.0000 -0.0000 -1.0000
vn 1.0000 -0.0000 -0.0000
vn -0.0000 -0.0000 1.0000
vn -0.0000 -1.0000 -0.0000
vn -0.0000 1.0000 -0.0000
s 0
g off
g Cube.074_Cube.027_Material.006
usemtl Material.006
f 44//19 57//19 59//19
f 46//20 49//20 45//20
f 49//21 51//21 47//21
f 48//22 43//22 47//22
f 49//23 43//23 45//23
f 46//24 48//24 50//24
f 53//22 57//22 54//22
f 58//21 50//21 48//21
f 54//19 45//19 52//19
f 51//24 54//24 52//24
f 59//23 56//23 58//23
f 59//20 58//20 55//20
f 52//19 43//19 44//19
f 44//19 46//19 57//19
f 59//19 52//19 44//19
f 46//20 50//20 49//20
f 49//21 50//21 53//21
f 50//21 56//21 53//21
f 51//21 55//21 47//21
f 49//21 53//21 51//21
f 48//22 44//22 43//22
f 49//23 47//23 43//23
f 46//24 44//24 48//24
f 53//22 56//22 57//22
f 48//21 47//21 55//21
f 58//21 56//21 50//21
f 48//21 55//21 58//21
f 54//19 57//19 46//19
f 45//19 43//19 52//19
f 54//19 46//19 45//19
f 51//24 53//24 54//24
f 59//23 57//23 56//23
f 55//20 51//20 52//20
f 52//20 59//20 55//20
o Cube.076_Cube.029
v 2.765855 1.188787 0.040860
v 2.765855 1.565510 0.040860
v 2.765855 1.188787 -0.230527
v 2.765855 1.565510 -0.230527
v 2.730302 1.188787 0.040860
v 2.730302 1.565510 0.040860
v 2.730302 1.188787 -0.230527
v 2.730302 1.565510 -0.230527
vn -1.0000 -0.0000 -0.0000
vn -0.0000 -0.0000 1.0000
vn 1.0000 -0.0000 -0.0000
vn -0.0000 -0.0000 -1.0000
vn -0.0000 1.0000 -0.0000
vn -0.0000 -1.0000 -0.0000
s 0
g off
g Cube.076_Cube.029_Material.001
usemtl Material.001
f 61//25 62//25 60//25
f 63//26 66//26 62//26
f 67//27 64//27 66//27
f 65//28 60//28 64//28
f 66//29 60//29 62//29
f 63//30 65//30 67//30
f 61//25 63//25 62//25
f 63//26 67//26 66//26
f 67//27 65//27 64//27
f 65//28 61//28 60//28
f 66//29 64//29 60//29
f 63//30 61//30 65//30
o Cube.083_Cube.027
v 2.710757 1.689970 0.526763
v 2.710757 2.195729 0.526763
v 2.710757 1.689970 0.161788
v 2.710757 2.195729 0.161788
v 2.790152 1.689970 0.526763
v 2.790152 2.195729 0.526763
v 2.790152 1.689970 0.161788
v 2.790152 2.195729 0.161788
v 2.790152 1.748326 0.474420
v 2.710757 1.748326 0.474420
v 2.790152 1.748326 0.214132
v 2.710757 1.748326 0.214132
v 2.790152 1.892325 0.474420
v 2.790152 2.137372 0.214132
v 2.710757 2.137372 0.214132
v 2.790152 2.137372 0.474419
v 2.710757 2.137372 0.474419
vn -1.0000 -0.0000 -0.0000
vn -0.0000 -0.0000 -1.0000
vn 1.0000 -0.0000 -0.0000
vn -0.0000 -0.0000 1.0000
vn -0.0000 -1.0000 -0.0000
vn -0.0000 1.0000 -0.0000
s 0
g off
g Cube.083_Cube.027_Material.006
usemtl Material.006
f 69//31 82//31 84//31
f 71//32 74//32 70//32
f 74//33 76//33 72//33
f 73//34 68//34 72//34
f 74//35 68//35 70//35
f 71//36 73//36 75//36
f 78//34 82//34 79//34
f 83//33 75//33 73//33
f 79//31 70//31 77//31
f 76//36 79//36 77//36
f 84//35 81//35 83//35
f 84//32 83//32 80//32
f 77//31 68//31 84//31
f 68//31 69//31 84//31
f 69//31 71//31 82//31
f 71//32 75//32 74//32
f 74//33 75//33 81//33
f 74//33 81//33 78//33
f 76//33 80//33 72//33
f 74//33 78//33 76//33
f 73//34 69//34 68//34
f 74//35 72//35 68//35
f 71//36 69//36 73//36
f 78//34 81//34 82//34
f 73//33 72//33 80//33
f 83//33 81//33 75//33
f 73//33 80//33 83//33
f 79//31 82//31 70//31
f 82//31 71//31 70//31
f 70//31 68//31 77//31
f 76//36 78//36 79//36
f 84//35 82//35 81//35
f 80//32 76//32 77//32
f 77//32 84//32 80//32
